<svg width="24" height="21" viewBox="0 0 24 21" fill="none" xmlns="http://www.w3.org/2000/svg">
<path d="M4.48828 8.44511L5.57813 3.71354C5.74219 3.03597 6.33984 2.56511 7.04297 2.56511H9C9 2.96706 9.33984 3.30011 9.75 3.30011H14.25C14.6602 3.30011 15 2.96706 15 2.56511H16.957C17.6602 2.56511 18.2578 3.03597 18.4219 3.71354L19.5117 8.44511H21.0586L19.875 3.3805C19.5703 2.03683 18.3633 1.09511 16.957 1.09511H15C15 0.693154 14.6602 0.360107 14.25 0.360107H9.75C9.33984 0.360107 9 0.693154 9 1.09511H7.04297C5.63672 1.09511 4.42969 2.03683 4.125 3.3805L2.94141 8.44511H4.48828ZM19.5 20.9401C20.2266 20.9401 20.8477 20.4233 20.9766 19.7228L22.3242 12.1201H22.5C23.332 12.1201 24 11.4655 24 10.6501C24 9.83472 23.332 9.18011 22.5 9.18011H1.5C0.667969 9.18011 0 9.83472 0 10.6501C0 11.4655 0.667969 12.1201 1.5 12.1201H1.67578L3.02344 19.7228C3.15234 20.4233 3.77344 20.9401 4.5 20.9401H19.5ZM5.68359 18.3676H5.625C5.23828 18.3676 4.91016 18.069 4.875 17.69L4.5 12.9125C4.46484 12.5106 4.78125 12.1546 5.19141 12.1201C5.60156 12.0857 5.96484 12.3957 6 12.7977L6.375 17.5752C6.41016 17.9771 6.09375 18.3332 5.68359 18.3676ZM18.375 18.3676H18.3164C17.9063 18.3332 17.5898 17.9771 17.625 17.5752L18 12.7977C18.0352 12.3957 18.3984 12.0857 18.8086 12.1201C19.2188 12.1546 19.5352 12.5106 19.5 12.9125L19.125 17.69C19.0898 18.069 18.7617 18.3676 18.375 18.3676ZM9.75 18.3676C9.33984 18.3676 9 18.0346 9 17.6326V12.8551C9 12.4532 9.33984 12.1201 9.75 12.1201C10.1602 12.1201 10.5 12.4532 10.5 12.8551V17.6326C10.5 18.0346 10.1602 18.3676 9.75 18.3676ZM14.25 18.3676C13.8398 18.3676 13.5 18.0346 13.5 17.6326V12.8551C13.5 12.4532 13.8398 12.1201 14.25 12.1201C14.6602 12.1201 15 12.4532 15 12.8551V17.6326C15 18.0346 14.6602 18.3676 14.25 18.3676Z" fill="#417838"/>
</svg>
