<svg width="18" height="18" viewBox="0 0 18 18" fill="none" xmlns="http://www.w3.org/2000/svg">
<path d="M6.67013 0.973395C6.70809 0.900962 6.73321 0.820692 6.74403 0.737167C6.75485 0.653642 6.75118 0.568499 6.73321 0.486598C6.71524 0.404697 6.68333 0.327643 6.63931 0.259835C6.59528 0.192027 6.54 0.134793 6.47662 0.0914008C6.41325 0.0480086 6.34301 0.019308 6.26992 0.0069377C6.19684 -0.0054326 6.12234 -0.00123028 6.05067 0.0193046C5.97901 0.0398395 5.91159 0.0763048 5.85226 0.126619C5.79292 0.176932 5.74284 0.240109 5.70487 0.312542L2.49412 6.42864H0.5625C0.413316 6.42864 0.270242 6.49637 0.164752 6.61693C0.0592632 6.73749 0 6.901 0 7.0715L0 8.3572C0 8.5277 0.0592632 8.69121 0.164752 8.81177C0.270242 8.93233 0.413316 9.00006 0.5625 9.00006H1.26338L3.33787 17.3006C3.38834 17.5025 3.49508 17.68 3.64188 17.8062C3.78869 17.9325 3.96753 18.0005 4.15125 18H13.851C14.0345 18.0002 14.2131 17.9321 14.3597 17.8059C14.5063 17.6796 14.6128 17.5022 14.6632 17.3006L16.7366 9.00006H17.4375C17.5867 9.00006 17.7298 8.93233 17.8352 8.81177C17.9407 8.69121 18 8.5277 18 8.3572V7.0715C18 6.901 17.9407 6.73749 17.8352 6.61693C17.7298 6.49637 17.5867 6.42864 17.4375 6.42864H15.5059L12.2963 0.312542C12.2583 0.240109 12.2082 0.176932 12.1489 0.126619C12.0895 0.0763048 12.0221 0.0398395 11.9504 0.0193046C11.8788 -0.00123028 11.8043 -0.0054326 11.7312 0.0069377C11.6581 0.019308 11.5879 0.0480086 11.5245 0.0914008C11.4611 0.134793 11.4058 0.192027 11.3618 0.259835C11.3178 0.327643 11.2859 0.404697 11.2679 0.486598C11.2499 0.568499 11.2463 0.653642 11.2571 0.737167C11.2679 0.820692 11.293 0.900962 11.331 0.973395L14.1941 6.42864H3.80587L6.67125 0.973395H6.67013ZM4.5 11.5715C4.5 11.2305 4.61853 10.9035 4.8295 10.6623C5.04048 10.4212 5.32663 10.2858 5.625 10.2858C5.92337 10.2858 6.20952 10.4212 6.4205 10.6623C6.63147 10.9035 6.75 11.2305 6.75 11.5715V14.1429C6.75 14.4839 6.63147 14.8109 6.4205 15.052C6.20952 15.2931 5.92337 15.4286 5.625 15.4286C5.32663 15.4286 5.04048 15.2931 4.8295 15.052C4.61853 14.8109 4.5 14.4839 4.5 14.1429V11.5715ZM7.875 11.5715C7.875 11.2305 7.99353 10.9035 8.2045 10.6623C8.41548 10.4212 8.70163 10.2858 9 10.2858C9.29837 10.2858 9.58452 10.4212 9.7955 10.6623C10.0065 10.9035 10.125 11.2305 10.125 11.5715V14.1429C10.125 14.4839 10.0065 14.8109 9.7955 15.052C9.58452 15.2931 9.29837 15.4286 9 15.4286C8.70163 15.4286 8.41548 15.2931 8.2045 15.052C7.99353 14.8109 7.875 14.4839 7.875 14.1429V11.5715ZM12.375 10.2858C12.6734 10.2858 12.9595 10.4212 13.1705 10.6623C13.3815 10.9035 13.5 11.2305 13.5 11.5715V14.1429C13.5 14.4839 13.3815 14.8109 13.1705 15.052C12.9595 15.2931 12.6734 15.4286 12.375 15.4286C12.0766 15.4286 11.7905 15.2931 11.5795 15.052C11.3685 14.8109 11.25 14.4839 11.25 14.1429V11.5715C11.25 11.2305 11.3685 10.9035 11.5795 10.6623C11.7905 10.4212 12.0766 10.2858 12.375 10.2858Z" fill="#508104"/>
</svg>
