<svg width="18" height="18" viewBox="0 0 18 18" fill="none" xmlns="http://www.w3.org/2000/svg">
<path d="M6.74979 0.56249C6.74979 0.413309 6.80906 0.270237 6.91456 0.16475C7.02006 0.0592622 7.16314 0 7.31234 0L10.6877 0C10.8369 0 10.9799 0.0592622 11.0854 0.16475C11.1909 0.270237 11.2502 0.413309 11.2502 0.56249C11.2502 0.711672 11.1909 0.854744 11.0854 0.960231C10.9799 1.06572 10.8369 1.12498 10.6877 1.12498H10.1251V2.32871C11.6573 2.54985 13.0903 3.21752 14.2452 4.2483C15.4001 5.27908 16.2256 6.62728 16.6186 8.12445C17.0116 9.62162 16.9546 11.2014 16.4549 12.6664C15.9552 14.1314 15.0348 15.4167 13.8087 16.3617L14.4849 17.039C14.5905 17.1444 14.6499 17.2875 14.65 17.4368C14.6501 17.5861 14.5909 17.7293 14.4855 17.8349C14.38 17.9405 14.2368 17.9999 14.0876 18C13.9383 18.0001 13.7951 17.9409 13.6894 17.8354L12.8501 16.9962C11.6744 17.6561 10.3483 18.0017 9 17.9997C7.65169 18.0017 6.32564 17.6561 5.14989 16.9962L4.31056 17.8354C4.25826 17.8877 4.19618 17.9291 4.12787 17.9573C4.05956 17.9855 3.98636 18.0001 3.91244 18C3.83852 17.9999 3.76534 17.9853 3.69707 17.957C3.6288 17.9287 3.56678 17.8872 3.51455 17.8349C3.46232 17.7826 3.4209 17.7205 3.39266 17.6522C3.36443 17.5839 3.34992 17.5107 3.34997 17.4368C3.35008 17.2875 3.40948 17.1444 3.51511 17.039L4.19242 16.3617C2.96638 15.4168 2.04598 14.1316 1.54618 12.6667C1.04639 11.2017 0.989368 9.62202 1.38224 8.12488C1.77511 6.62774 2.60046 5.27953 3.75518 4.24868C4.90991 3.21783 6.34281 2.55003 7.87489 2.32871V1.12498H7.31234C7.16314 1.12498 7.02006 1.06572 6.91456 0.960231C6.80906 0.854744 6.74979 0.711672 6.74979 0.56249ZM9.56255 6.18739C9.56255 6.03821 9.50328 5.89514 9.39779 5.78965C9.29229 5.68416 9.1492 5.6249 9 5.6249C8.8508 5.6249 8.70772 5.68416 8.60222 5.78965C8.49672 5.89514 8.43745 6.03821 8.43745 6.18739V9.96958L6.82967 12.647C6.75283 12.775 6.73 12.9283 6.76618 13.0731C6.80237 13.218 6.89462 13.3425 7.02263 13.4193C7.15064 13.4962 7.30393 13.519 7.44878 13.4828C7.59363 13.4466 7.71817 13.3544 7.79501 13.2264L9.48267 10.4139C9.53498 10.3266 9.56259 10.2267 9.56255 10.1248V6.18739ZM0.966748 6.06027C0.675638 5.80708 0.439737 5.49671 0.273715 5.14846C0.107694 4.80021 0.0151018 4.42154 0.00169795 4.03598C-0.0117059 3.65042 0.0543648 3.26623 0.195801 2.9073C0.337238 2.54837 0.551015 2.22237 0.823839 1.94957C1.09666 1.67678 1.4227 1.46302 1.78167 1.3216C2.14065 1.18018 2.52488 1.11412 2.91048 1.12752C3.29608 1.14092 3.6748 1.2335 4.02308 1.39951C4.37137 1.56551 4.68177 1.80139 4.93499 2.09246C3.22478 2.96066 1.83504 4.35024 0.966748 6.06027ZM13.065 2.09246C13.3182 1.80139 13.6286 1.56551 13.9769 1.39951C14.3252 1.2335 14.7039 1.14092 15.0895 1.12752C15.4751 1.11412 15.8594 1.18018 16.2183 1.3216C16.5773 1.46302 16.9033 1.67678 17.1762 1.94957C17.449 2.22237 17.6628 2.54837 17.8042 2.9073C17.9456 3.26623 18.0117 3.65042 17.9983 4.03598C17.9849 4.42154 17.8923 4.80021 17.7263 5.14846C17.5603 5.49671 17.3244 5.80708 17.0333 6.06027C16.165 4.35024 14.7752 2.96066 13.065 2.09246Z" fill="#508104"/>
</svg>
