<svg width="20" height="12" viewBox="0 0 20 12" fill="none" xmlns="http://www.w3.org/2000/svg">
<path fill-rule="evenodd" clip-rule="evenodd" d="M0.468388 0.968997C0.538056 0.899153 0.62082 0.843738 0.711937 0.805928C0.803055 0.768119 0.900737 0.748657 0.999388 0.748657C1.09804 0.748657 1.19572 0.768119 1.28684 0.805928C1.37796 0.843738 1.46072 0.899153 1.53039 0.968997L9.99939 9.4395L18.4684 0.968997C18.5381 0.899266 18.6209 0.843951 18.712 0.806212C18.8031 0.768474 18.9008 0.74905 18.9994 0.74905C19.098 0.74905 19.1957 0.768474 19.2868 0.806212C19.3779 0.843951 19.4607 0.899266 19.5304 0.968997C19.6001 1.03873 19.6554 1.12151 19.6932 1.21262C19.7309 1.30373 19.7503 1.40138 19.7503 1.5C19.7503 1.59861 19.7309 1.69626 19.6932 1.78737C19.6554 1.87848 19.6001 1.96127 19.5304 2.031L10.5304 11.031C10.4607 11.1008 10.378 11.1563 10.2868 11.1941C10.1957 11.2319 10.098 11.2513 9.99939 11.2513C9.90074 11.2513 9.80305 11.2319 9.71194 11.1941C9.62082 11.1563 9.53806 11.1008 9.46839 11.031L0.468388 2.031C0.398543 1.96133 0.343129 1.87857 0.305319 1.78745C0.267509 1.69633 0.248047 1.59865 0.248047 1.5C0.248047 1.40135 0.267509 1.30366 0.305319 1.21255C0.343129 1.12143 0.398543 1.03867 0.468388 0.968997Z" fill="#999999"/>
</svg>
