<svg width="22" height="22" viewBox="0 0 22 22" fill="none" xmlns="http://www.w3.org/2000/svg">
<path d="M11.958 0.0632437C10.3448 -0.265381 8.84625 0.728744 8.73825 2.01574C8.61675 3.46087 8.35012 4.78774 8.016 5.57699C7.80506 6.07199 7.20769 6.96987 6.261 7.83062C5.32106 8.68724 4.09763 9.45037 2.66494 9.76937C1.53094 10.021 0.375 10.8212 0.375 11.99V17.4914C0.375 18.6532 1.52587 19.5044 2.8185 19.6157C4.62413 19.7725 5.45775 20.1864 6.30825 20.6099L6.38925 20.6511C6.84825 20.878 7.36462 21.1296 8.02612 21.3166C8.69606 21.5036 9.47906 21.615 10.5 21.615H16.4062C17.9874 21.615 19.1046 20.9591 19.6699 20.152C19.9431 19.7711 20.0908 19.3391 20.0985 18.898C20.0985 18.689 20.0597 18.469 19.9686 18.26C20.3078 17.8984 20.6098 17.4652 20.7921 17.0211C20.9777 16.5674 21.0823 15.9734 20.7988 15.4412C20.9152 15.2625 21.0013 15.0714 21.0671 14.8871C21.1971 14.5159 21.2578 14.1061 21.2578 13.7087C21.2578 13.3127 21.1971 12.9044 21.0671 12.5317C21.0081 12.3604 20.9302 12.1938 20.8342 12.034C21.1297 11.6914 21.3198 11.296 21.3886 10.8811C21.4573 10.4662 21.4026 10.0439 21.2291 9.64974C20.8815 8.83574 20.0783 8.13724 19.2041 7.90074C17.7748 7.51299 16.1616 7.52124 14.9584 7.61062C14.7086 7.62893 14.4593 7.65185 14.2108 7.67937C14.7962 5.63665 14.7603 3.50833 14.1062 1.47949C13.9924 1.15443 13.7741 0.860036 13.4738 0.62676C13.1736 0.393483 12.8023 0.229794 12.3984 0.152619L11.958 0.0632437ZM16.4062 20.2414H10.5C9.63937 20.2414 9.04369 20.1465 8.57625 20.0159C8.10206 19.8825 7.72238 19.7024 7.26675 19.4755L7.19925 19.4425C6.26269 18.9764 5.17762 18.4374 2.99737 18.249C2.43544 18.1995 2.0625 17.8502 2.0625 17.4927V11.99C2.0625 11.6407 2.44387 11.2434 3.10875 11.0962C4.95656 10.6837 6.44494 9.72674 7.51988 8.74774C8.59144 7.77149 9.31538 6.71962 9.609 6.02799C10.0191 5.06549 10.2958 3.59699 10.4224 2.10924C10.4646 1.61149 11.0299 1.29249 11.5479 1.39699L11.9901 1.48774C12.2601 1.54274 12.4254 1.68437 12.4761 1.83837C13.1652 3.9779 13.0802 6.23417 12.2314 8.33524C12.1833 8.4521 12.1747 8.57733 12.2064 8.69783C12.2382 8.81833 12.309 8.92967 12.4117 9.02019C12.5143 9.11071 12.6449 9.17708 12.7899 9.21237C12.9348 9.24765 13.0887 9.25054 13.2354 9.22074L13.2405 9.21937L13.2641 9.21524L13.362 9.19599C13.939 9.09615 14.5228 9.02406 15.1103 8.98012C16.2291 8.89762 17.5689 8.90587 18.6709 9.20562C18.9662 9.28537 19.4303 9.61812 19.6327 10.0994C19.8133 10.5229 19.7796 11.0206 19.1839 11.5046L18.5882 11.99L19.1839 12.4767C19.2564 12.5359 19.3611 12.6706 19.4438 12.9099C19.5247 13.1395 19.5703 13.4186 19.5703 13.7087C19.5703 14.0002 19.5247 14.278 19.4438 14.509C19.3594 14.7482 19.2564 14.883 19.1839 14.9421L18.5882 15.4275L19.1839 15.9142C19.2632 15.9789 19.3678 16.1576 19.1923 16.5852C19.0094 16.9999 18.7187 17.3775 18.3401 17.6921L17.7444 18.1775L18.3401 18.6642C18.3503 18.6711 18.4093 18.733 18.4093 18.898C18.4018 19.0997 18.3316 19.2965 18.2051 19.47C17.9267 19.866 17.3563 20.24 16.4062 20.24V20.2414Z" fill="#508104"/>
</svg>
