<svg width="14" height="18" viewBox="0 0 14 18" fill="none" xmlns="http://www.w3.org/2000/svg">
<path fill-rule="evenodd" clip-rule="evenodd" d="M13.5 3.9079C13.5 4.21848 13.3946 4.51634 13.2071 4.73595C13.0196 4.95557 12.7652 5.07895 12.5 5.07895H12V15.6184C12 16.2396 11.7893 16.8353 11.4142 17.2745C11.0391 17.7138 10.5304 17.9605 10 17.9605H4C3.46957 17.9605 2.96086 17.7138 2.58579 17.2745C2.21071 16.8353 2 16.2396 2 15.6184V5.07895H1.5C1.23478 5.07895 0.98043 4.95557 0.792893 4.73595C0.605357 4.51634 0.5 4.21848 0.5 3.9079V2.73684C0.5 2.42626 0.605357 2.1284 0.792893 1.90878C0.98043 1.68917 1.23478 1.56579 1.5 1.56579H5C5 1.25521 5.10536 0.957346 5.29289 0.737731C5.48043 0.518116 5.73478 0.394737 6 0.394737L8 0.394737C8.26522 0.394737 8.51957 0.518116 8.70711 0.737731C8.89464 0.957346 9 1.25521 9 1.56579H12.5C12.7652 1.56579 13.0196 1.68917 13.2071 1.90878C13.3946 2.1284 13.5 2.42626 13.5 2.73684V3.9079ZM3.118 5.07895L3 5.14804V15.6184C3 15.929 3.10536 16.2269 3.29289 16.4465C3.48043 16.6661 3.73478 16.7895 4 16.7895H10C10.2652 16.7895 10.5196 16.6661 10.7071 16.4465C10.8946 16.2269 11 15.929 11 15.6184V5.14804L10.882 5.07895H3.118ZM1.5 3.9079V2.73684H12.5V3.9079H1.5Z" fill="#D94B2B"/>
</svg>
