<svg width="18" height="18" viewBox="0 0 18 18" fill="none" xmlns="http://www.w3.org/2000/svg">
<path d="M1.32491 0C0.973525 0 0.636528 0.139589 0.388058 0.388058C0.139589 0.636528 0 0.973525 0 1.32491V7.40097C7.50397e-05 7.75233 0.139713 8.08927 0.3882 8.33768L9.6626 17.6121C9.91106 17.8605 10.248 18 10.5993 18C10.9506 18 11.2876 17.8605 11.536 17.6121L17.6121 11.536C17.8605 11.2876 18 10.9506 18 10.5993C18 10.248 17.8605 9.91106 17.6121 9.6626L8.33768 0.3882C8.08927 0.139713 7.75233 7.50397e-05 7.40097 0H1.32491ZM6.62457 4.6372C6.62457 5.16428 6.41519 5.66978 6.04248 6.04248C5.66978 6.41519 5.16428 6.62457 4.6372 6.62457C4.11012 6.62457 3.60462 6.41519 3.23192 6.04248C2.85921 5.66978 2.64983 5.16428 2.64983 4.6372C2.64983 4.11012 2.85921 3.60462 3.23192 3.23192C3.60462 2.85921 4.11012 2.64983 4.6372 2.64983C5.16428 2.64983 5.66978 2.85921 6.04248 3.23192C6.41519 3.60462 6.62457 4.11012 6.62457 4.6372Z" fill="#508104"/>
</svg>
