<svg width="16" height="16" viewBox="0 0 16 16" fill="none" xmlns="http://www.w3.org/2000/svg">
<path d="M8 9.5C9.3842 9.5 11.3054 9.9511 12.8458 10.6629C14.7838 11.5584 16 12.7681 16 14.25C16 15.2165 15.2165 16 14.25 16H1.75C0.7835 16 0 15.2165 0 14.25C0 12.7681 1.21622 11.5584 3.1542 10.6629C4.6946 9.9511 6.6158 9.5 8 9.5ZM8 11C6.8279 11 5.1182 11.4078 3.7833 12.0246C2.2205 12.7467 1.5 13.5375 1.5 14.25C1.5 14.3881 1.61193 14.5 1.75 14.5H14.25C14.3881 14.5 14.5 14.3881 14.5 14.25C14.5 13.5375 13.7795 12.7467 12.2167 12.0246C10.8818 11.4078 9.1721 11 8 11ZM8 0C10.2091 0 12 1.79086 12 4C12 6.2091 10.2091 8 8 8C5.7909 8 4 6.2091 4 4C4 1.79086 5.7909 0 8 0ZM8 1.5C6.6193 1.5 5.5 2.6193 5.5 4C5.5 5.3807 6.6193 6.5 8 6.5C9.3807 6.5 10.5 5.3807 10.5 4C10.5 2.6193 9.3807 1.5 8 1.5Z" fill="white"/>
</svg>
