<svg width="10" height="6" viewBox="0 0 10 6" fill="none" xmlns="http://www.w3.org/2000/svg">
<path fill-rule="evenodd" clip-rule="evenodd" d="M8.56467 0.624047C8.85751 0.33121 9.33229 0.33121 9.62512 0.624047C9.91796 0.916884 9.91796 1.39167 9.62512 1.6845L5.55438 5.75801C5.54745 5.76552 5.54035 5.77292 5.53306 5.78021C5.31981 5.99345 5.01009 6.05141 4.7444 5.95409C4.64439 5.91799 4.55029 5.85967 4.4699 5.77928C4.46546 5.77484 4.46109 5.77036 4.45679 5.76584L0.377831 1.68543C0.0849938 1.3926 0.0849938 0.917815 0.377831 0.624978C0.670668 0.332141 1.14545 0.332141 1.43829 0.624978L5.0002 4.18742L8.56467 0.624047Z" fill="#508104"/>
</svg>
