<svg width="12" height="14" viewBox="0 0 12 14" fill="none" xmlns="http://www.w3.org/2000/svg">
<path d="M10.2027 2.03437C9.08036 0.721875 7.58571 0 5.99732 0C2.71875 0 0.0508929 3.1125 0.0508929 6.9375C0.0508929 8.15937 0.324107 9.35312 0.84375 10.4062L0 14L3.15268 13.0344C4.02054 13.5875 4.99821 13.8781 5.99464 13.8781H5.99732C9.27321 13.8781 12 10.7656 12 6.94063C12 5.0875 11.325 3.34687 10.2027 2.03437V2.03437ZM5.99732 12.7094C5.10804 12.7094 4.2375 12.4312 3.47946 11.9062L3.3 11.7812L1.43036 12.3531L1.92857 10.225L1.81071 10.0063C1.31518 9.0875 1.05536 8.02813 1.05536 6.9375C1.05536 3.75938 3.27321 1.17188 6 1.17188C7.32054 1.17188 8.56071 1.77187 9.49286 2.8625C10.425 3.95312 10.9982 5.4 10.9955 6.94063C10.9955 10.1219 8.72143 12.7094 5.99732 12.7094V12.7094ZM8.70804 8.39062C8.56071 8.30313 7.82946 7.88437 7.69286 7.82812C7.55625 7.76875 7.45714 7.74062 7.35804 7.91562C7.25893 8.09062 6.975 8.47813 6.88661 8.59688C6.80089 8.7125 6.7125 8.72812 6.56518 8.64062C5.69196 8.13125 5.11875 7.73125 4.54286 6.57812C4.39018 6.27187 4.69554 6.29375 4.97946 5.63125C5.02768 5.51562 5.00357 5.41562 4.96607 5.32812C4.92857 5.24063 4.63125 4.3875 4.50804 4.04063C4.3875 3.70313 4.26429 3.75 4.17321 3.74375C4.0875 3.7375 3.98839 3.7375 3.88929 3.7375C3.79018 3.7375 3.62946 3.78125 3.49286 3.95312C3.35625 4.12812 2.97321 4.54688 2.97321 5.4C2.97321 6.25313 3.50625 7.07813 3.57857 7.19375C3.65357 7.30938 4.62589 9.05937 6.11786 9.8125C7.06071 10.2875 7.43036 10.3281 7.90179 10.2469C8.18839 10.1969 8.78036 9.82812 8.90357 9.42188C9.02679 9.01562 9.02679 8.66875 8.98929 8.59688C8.95446 8.51875 8.85536 8.475 8.70804 8.39062Z" fill="#508104"/>
</svg>
