<svg width="16" height="16" viewBox="0 0 16 16" fill="none" xmlns="http://www.w3.org/2000/svg">
<path d="M15.6657 2.50346C15.4817 1.51804 14.9395 0.741958 14.2511 0.478583C13.0033 0 8 0 8 0C8 0 2.99669 0 1.7489 0.478583C1.06052 0.742 0.518349 1.51804 0.334336 2.50346C0 4.28958 0 8.01617 0 8.01617C0 8.01617 0 11.7428 0.334336 13.5289C0.518349 14.5143 1.06052 15.258 1.7489 15.5214C2.99669 16 8 16 8 16C8 16 13.0033 16 14.2511 15.5214C14.9395 15.258 15.4817 14.5143 15.6657 13.5289C16 11.7428 16 8.01617 16 8.01617C16 8.01617 16 4.28958 15.6657 2.50346ZM6.36363 11.3996V4.63271L10.5454 8.01625L6.36363 11.3996Z" fill="#508104"/>
</svg>
